<svg width="123" height="124" viewBox="0 0 123 124" fill="none" xmlns="http://www.w3.org/2000/svg">
<path d="M0 31V0H30.75V12.4H12.3V31H0ZM0 124V93H12.3V111.6H30.75V124H0ZM92.25 124V111.6H110.7V93H123V124H92.25ZM110.7 31V12.4H92.25V0H123V31H110.7ZM95.325 96.1H104.55V105.4H95.325V96.1ZM95.325 77.5H104.55V86.8H95.325V77.5ZM86.1 86.8H95.325V96.1H86.1V86.8ZM76.875 96.1H86.1V105.4H76.875V96.1ZM67.65 86.8H76.875V96.1H67.65V86.8ZM86.1 68.2H95.325V77.5H86.1V68.2ZM76.875 77.5H86.1V86.8H76.875V77.5ZM67.65 68.2H76.875V77.5H67.65V68.2ZM104.55 18.6V55.8H67.65V18.6H104.55ZM55.35 68.2V105.4H18.45V68.2H55.35ZM55.35 18.6V55.8H18.45V18.6H55.35ZM46.125 96.1V77.5H27.675V96.1H46.125ZM46.125 46.5V27.9H27.675V46.5H46.125ZM95.325 46.5V27.9H76.875V46.5H95.325Z" fill="black"/>
</svg>
